<?xml version="1.0" encoding="utf-8"?>
<!-- Generator: Adobe Illustrator 26.5.0, SVG Export Plug-In . SVG Version: 6.00 Build 0)  -->
<svg version="1.1" id="Capa_1" xmlns="http://www.w3.org/2000/svg" xmlns:xlink="http://www.w3.org/1999/xlink" x="0px" y="0px"
	 viewBox="0 0 31.9 32" style="enable-background:new 0 0 31.9 32;" xml:space="preserve">
<style type="text/css">
	.st0{fill:#FFCC02;}
</style>
<path d="M22.9,7.8c0.7,1.6,1.2,3.3,1.2,5.2c0,6.6-5.3,11.9-11.9,11.9c-1,0-2-0.1-3-0.4c1.9,4,6,6.8,10.8,6.8
	c6.6,0,11.9-5.3,11.9-11.9C31.9,13.8,28.1,9.1,22.9,7.8"/>
<path class="st0" d="M24.1,12.9c0,6.6-5.3,11.9-11.9,11.9S0.2,19.5,0.2,12.9S5.6,1,12.2,1S24.1,6.3,24.1,12.9"/>
</svg>
