<?xml version="1.0" encoding="utf-8"?>
<!-- Generator: Adobe Illustrator 26.5.0, SVG Export Plug-In . SVG Version: 6.00 Build 0)  -->
<svg version="1.1" id="Capa_1" xmlns="http://www.w3.org/2000/svg" xmlns:xlink="http://www.w3.org/1999/xlink" x="0px" y="0px"
	 viewBox="0 0 343.2 107.2" style="enable-background:new 0 0 343.2 107.2;" xml:space="preserve">
<style type="text/css">
	.st0{fill:#FFCE00;}
</style>
<path d="M184.5,96.3c-2.3-0.7-3.3-1.1-3.3-2.4c0-1.2,1.5-1.6,2.9-1.6c1.2,0,2.4,0.3,3.2,0.9c0.2,0.1,0.4,0.2,0.7,0.1
	c0.2-0.1,0.4-0.2,0.5-0.4l0.4-0.8c0.2-0.4,0.1-0.8-0.3-1.1c-1.2-0.8-2.9-1.3-4.5-1.3c-3.3,0-5.5,1.7-5.5,4.2c0,3.3,2.7,4.1,5,4.7
	c2.3,0.7,3.3,1.1,3.3,2.5c0,1.4-1.6,1.9-3.1,1.9c-1.5,0-3-0.8-4-1.7c-0.2-0.2-0.4-0.3-0.7-0.2c-0.3,0-0.5,0.2-0.6,0.4l-0.4,0.7
	c-0.2,0.3-0.1,0.8,0.1,1c1.4,1.4,3.6,2.3,5.6,2.3c3.4,0,5.7-1.8,5.7-4.4C189.6,97.8,186.8,96.9,184.5,96.3"/>
<path d="M199.7,90.3c-0.1-0.3-0.4-0.5-0.8-0.5H198c-0.3,0-0.6,0.2-0.8,0.5l-6.4,14.1c-0.1,0.3-0.1,0.6,0.1,0.8
	c0.2,0.2,0.4,0.4,0.7,0.4h0.9c0.3,0,0.6-0.2,0.8-0.5l1.6-3.5h7.2l1.6,3.5c0.1,0.3,0.4,0.5,0.8,0.5h0.9c0.3,0,0.5-0.1,0.7-0.4
	c0.2-0.2,0.2-0.5,0.1-0.8L199.7,90.3z M196,99l2.4-5.4l2.5,5.4H196z"/>
<path d="M210.3,89.8h-0.8c-0.5,0-0.8,0.4-0.8,0.8v14.1c0,0.5,0.4,0.8,0.8,0.8h0.8c0.5,0,0.8-0.4,0.8-0.8V90.6
	C211.2,90.1,210.8,89.8,210.3,89.8"/>
<path d="M227.9,89.8h-0.8c-0.5,0-0.8,0.4-0.8,0.8v10.3l-7.9-10.8c-0.2-0.2-0.4-0.3-0.7-0.3h-1c-0.5,0-0.8,0.4-0.8,0.8v14.1
	c0,0.5,0.4,0.8,0.8,0.8h0.8c0.5,0,0.8-0.4,0.8-0.8V94.4l7.9,10.8c0.2,0.2,0.4,0.3,0.7,0.3h1c0.5,0,0.8-0.4,0.8-0.8V90.6
	C228.8,90.1,228.4,89.8,227.9,89.8"/>
<path d="M242.5,89.8h-10.4c-0.5,0-0.8,0.4-0.8,0.8v0.8c0,0.5,0.4,0.8,0.8,0.8h3.9v12.5c0,0.5,0.4,0.8,0.8,0.8h0.8
	c0.5,0,0.8-0.4,0.8-0.8V92.3h3.9c0.5,0,0.8-0.4,0.8-0.8v-0.8C243.3,90.1,242.9,89.8,242.5,89.8"/>
<path d="M248.7,97.5h-4.5c-0.5,0-0.8,0.4-0.8,0.8V99c0,0.5,0.4,0.8,0.8,0.8h4.5c0.5,0,0.8-0.4,0.8-0.8v-0.7
	C249.5,97.8,249.2,97.5,248.7,97.5"/>
<path d="M266.2,97h-0.8c0,0,0,0,0,0h-2.5c-0.5,0-0.8,0.4-0.8,0.8v0.8c0,0.5,0.4,0.8,0.8,0.8h1.7v2.6c-1,0.7-2.2,1-3.4,1
	c-3.1,0-5.6-2.4-5.6-5.4c0-3,2.5-5.4,5.6-5.4c1.4,0,2.9,0.5,3.9,1.5c0.2,0.2,0.4,0.2,0.6,0.2c0.2,0,0.4-0.1,0.6-0.3l0.5-0.6
	c0.3-0.4,0.2-0.9-0.1-1.2c-1.5-1.3-3.5-2.1-5.5-2.1c-4.5,0-8.2,3.5-8.2,7.9c0,4.4,3.6,7.9,8.1,7.9c2,0,4-0.7,5.6-2
	c0.2-0.2,0.3-0.4,0.3-0.6v-5.1C267.1,97.3,266.7,97,266.2,97"/>
<path d="M278.1,89.7c-4.5,0-8.1,3.5-8.1,7.9c0,4.4,3.7,7.9,8.1,7.9c4.5,0,8.1-3.6,8.1-7.9C286.2,93.3,282.6,89.7,278.1,89.7
	 M278.1,103.1c-3.1,0-5.6-2.4-5.6-5.4c0-3,2.5-5.4,5.6-5.4c3.1,0,5.6,2.4,5.6,5.4C283.7,100.6,281.2,103.1,278.1,103.1"/>
<path d="M299.6,97.2c0.8-0.7,1.3-1.8,1.3-3.1c0-2.7-2-4.3-5.2-4.3h-5.8c-0.5,0-0.8,0.4-0.8,0.8v14.1c0,0.5,0.4,0.8,0.8,0.8h5.8
	c3.7,0,5.9-1.7,5.9-4.6C301.6,99.3,300.9,98,299.6,97.2 M295.6,96.2h-4.1v-3.9h4.1c1.2,0,2.7,0.3,2.7,1.9
	C298.4,95.5,297.5,96.2,295.6,96.2 M291.6,98.7h4.1c1.3,0,3.4,0.3,3.4,2.2c0,1.8-1.9,2.2-3.4,2.2h-4.1V98.7z"/>
<path d="M311.9,90.3c-0.1-0.3-0.4-0.5-0.8-0.5h-0.9c-0.3,0-0.6,0.2-0.8,0.5l-6.4,14.1c-0.1,0.3-0.1,0.6,0.1,0.8
	c0.2,0.2,0.4,0.4,0.7,0.4h0.9c0.3,0,0.6-0.2,0.8-0.5l1.6-3.5h7.2l1.6,3.5c0.1,0.3,0.4,0.5,0.8,0.5h0.9c0.3,0,0.5-0.1,0.7-0.4
	c0.2-0.2,0.2-0.5,0.1-0.8L311.9,90.3z M308.2,99l2.4-5.4l2.5,5.4H308.2z"/>
<path d="M322.5,89.8h-0.8c-0.5,0-0.8,0.4-0.8,0.8v14.1c0,0.5,0.4,0.8,0.8,0.8h0.8c0.5,0,0.8-0.4,0.8-0.8V90.6
	C323.3,90.1,323,89.8,322.5,89.8"/>
<path d="M340.1,89.8h-0.8c-0.5,0-0.8,0.4-0.8,0.8v10.3l-7.9-10.8c-0.2-0.2-0.4-0.3-0.7-0.3h-1c-0.5,0-0.8,0.4-0.8,0.8v14.1
	c0,0.5,0.4,0.8,0.8,0.8h0.8c0.5,0,0.8-0.4,0.8-0.8V94.4l7.9,10.8c0.2,0.2,0.4,0.3,0.7,0.3h1c0.5,0,0.8-0.4,0.8-0.8V90.6
	C340.9,90.1,340.6,89.8,340.1,89.8"/>
<path d="M54,17.6c1.8,3.7,2.7,7.8,2.7,12.1c0,15.4-12.5,28-28,28c-2.4,0-4.7-0.3-7-0.9c4.5,9.4,14.1,15.9,25.2,15.9
	c15.4,0,28-12.5,28-28C75,31.6,66.1,20.7,54,17.6"/>
<path d="M249.6,20.8h-7.4c-1.1,0-2.2,0.7-2.6,1.8l-13.8,36.1l-13.9-36.1c-0.4-1.1-1.4-1.8-2.6-1.8h-7.4c-1.5,0-2.5,1.5-1.9,2.8
	l18.6,45.4c0.4,1,1.4,1.7,2.6,1.7h9.2c1.1,0,2.1-0.7,2.6-1.7l18.6-45.4C252.1,22.3,251.1,20.8,249.6,20.8"/>
<path d="M97.8,23.6V68c0,1.5-1.2,2.8-2.8,2.8h-5.8c-1.5,0-2.8-1.2-2.8-2.8V23.6c0-1.5,1.2-2.8,2.8-2.8H95
	C96.5,20.8,97.8,22.1,97.8,23.6"/>
<path d="M338.3,19.7c-9.7,0-20.2,3.2-27.7,8.1c-0.8,0.5-1.2,1.4-1.2,2.3V68c0,1.5,1.2,2.8,2.8,2.8h6c1.5,0,2.8-1.2,2.8-2.8V35.2
	c5.5-3.1,12-4.4,17.3-4.5c1.5,0,2.7-1.3,2.7-2.8v-5.5C340.9,21,339.8,19.7,338.3,19.7"/>
<path d="M174.1,19.7c-14.4,0-26.6,11.1-26.6,26.1c0,14.6,11.5,26.1,26.6,26.1c15,0,26.6-11.5,26.6-26.1
	C200.7,30.7,188.5,19.7,174.1,19.7 M174.1,61.2c-8.5,0-15.3-6.9-15.3-15.4c0-8.9,7.4-15.4,15.3-15.4c7.9,0,15.3,6.4,15.3,15.4
	C189.4,54.2,182.5,61.2,174.1,61.2"/>
<path d="M107.3,58.9c0.8-1.3,2.5-1.7,3.8-0.8c3.9,2.7,8.8,3.4,12.7,3.4c3.6,0,9.1-1.4,9.1-5.4c0-3.2-4.4-4-11.4-5.8
	c-8.2-2-17.2-4.4-17.2-15.2c0-9.5,8.8-15.3,19.4-15.3c7.9,0,13.8,2.8,15.8,3.9c1.4,0.8,1.9,2.6,1,4l-2.8,4.2c-0.8,1.1-2.2,1.5-3.4,1
	c-1.3-0.6-5.9-2.7-10.4-2.7c-4.6,0-8.2,1.7-8.2,4.9c0,3,4.1,4.2,13.3,6.4c7.7,1.9,15.3,5.2,15.3,14.6c0,9.8-8.2,16-20.2,16
	c-5.7,0-13.6-2-18.2-5.4c-1.3-0.9-1.7-2.6-0.8-3.9L107.3,58.9z"/>
<path d="M277.3,19.7C262,19.7,251,31.1,251,45.8c0,16.3,13,26.2,28.7,26.2c10.1,0,15.8-3.3,19.8-6c1.5-1,1.7-3.1,0.4-4.4l-3.4-3.2
	c-0.9-0.8-2.2-1-3.3-0.4c-0.5,0.3-6,3.8-13.2,3.8c-9.7,0-15.3-5.9-16.7-11h37.4c1.4,0,2.6-1.1,2.8-2.5c0.1-0.9,0.1-1.8,0.1-2.7
	C303.6,30.8,291.9,19.7,277.3,19.7 M277.3,29.5c7.9,0,12.9,5.6,14.3,11.7h-28.5C264.6,34.6,269.4,29.5,277.3,29.5"/>
<path class="st0" d="M56.8,29.7c0,15.4-12.5,28-28,28c-15.4,0-28-12.5-28-28c0-15.4,12.5-28,28-28C44.3,1.7,56.8,14.2,56.8,29.7"/>
</svg>
