<?xml version="1.0" encoding="utf-8"?>
<!-- Generator: Adobe Illustrator 26.5.0, SVG Export Plug-In . SVG Version: 6.00 Build 0)  -->
<svg version="1.1" id="Capa_1" xmlns="http://www.w3.org/2000/svg" xmlns:xlink="http://www.w3.org/1999/xlink" x="0px" y="0px"
	 viewBox="0 0 795 289.6" style="enable-background:new 0 0 795 289.6;" xml:space="preserve">
<style type="text/css">
	.st0{fill:#020203;}
	.st1{fill:#FFCD07;}
</style>
<g>
	<path class="st0" d="M28.2,69.2c-0.6,13.1-1.5,24.4-2.5,34h25c0-3.2,0.1-8.1,0.4-14.8v-0.7l0.7-15.2h12.1h5.4c3,0,5.3,0,6.7,0
		c1.5,0,2.8,0.1,4.2,0.2L81,54.4c-1.4,0.2-2.9,0.3-4.6,0.4c-1.7,0.1-4.5,0.1-8.2,0.1H52.7v-1.5c0-1.2,0-2.6,0.1-4
		c0.1-1.5,0.3-3.7,0.6-6.7l20,0c0.9,0,2.5,0,5,0.1c2.5,0.1,5.3,0.2,8.4,0.3l0.8-18.1h-58C29.3,41.4,28.8,56.1,28.2,69.2"/>
	<path class="st0" d="M505.4,85.8c-1.8,0-3.7,0-5.7-0.1c-2-0.1-4-0.3-6.2-0.4c-0.1-0.1-0.1-0.2-0.1-0.3c-0.1-3.7-0.2-6.5-0.2-8.4
		c0-9,0.3-17.9,0.8-26.6c0.5-8.7,1.4-17,2.4-24.9h-25.5c-0.2,16.4-0.7,31.2-1.3,44.2c-0.6,13.1-1.5,24.4-2.5,34h58.3l1-18.3
		c-4.2,0.3-7.8,0.6-11.1,0.7C512,85.7,508.7,85.8,505.4,85.8"/>
	<path class="st0" d="M686.3,58.3c-0.6-0.5-1.4-1.1-2.5-1.9c-6.2-4.7-9.3-8.2-9.3-10.2c0-1.8,0.8-3.2,2.5-4.1
		c1.7-0.9,4.2-1.3,7.6-1.3c1.8,0,4.1,0.2,6.7,0.7c2.6,0.4,6.1,1.2,10.3,2.4L700.2,26c-4.3-0.9-8.2-1.5-11.6-1.9
		c-3.3-0.4-6.4-0.6-9.1-0.6c-9.9,0-17.7,1.9-23.2,5.7c-5.6,3.8-8.3,9-8.3,15.7c0,7.1,6.3,15.6,19,25.6c0.1,0,0.1,0.1,0.2,0.1
		c0.5,0.4,1.2,0.9,2.1,1.7c5.7,4.4,8.5,7.6,8.5,9.8c0,1.5-0.7,2.7-2.2,3.7c-1.5,0.9-3.4,1.4-5.8,1.4c-3.5,0-7.1-0.4-10.9-1.1
		c-3.8-0.7-8-1.9-12.7-3.5l1.8,19.6c4.4,0.9,8.5,1.5,12.3,1.9c3.8,0.4,7.3,0.7,10.5,0.7c10.9,0,19.1-1.9,24.7-5.6
		c5.5-3.7,8.3-9.2,8.3-16.5c0-4-1.2-7.7-3.7-11.3C697.6,67.8,693,63.5,686.3,58.3"/>
	<path class="st0" d="M609,29.2c-0.3-1.4-0.6-2.8-0.8-4.2l-31.1,0c-1,2.6-1.8,4.6-2.4,6c-0.6,1.4-1.2,2.6-1.6,3.4l-34.7,68.8h25.9
		c0.4-1.5,0.9-3,1.4-4.5c0.5-1.5,1.1-3,1.6-4.5l6.5-15.6h28l4.2,17.7c0.4,1.4,0.6,2.6,0.9,3.7c0.2,1.1,0.4,2.2,0.5,3.1H633
		l-22.9-69.9C609.7,31.9,609.3,30.6,609,29.2 M580.6,60.8l10.5-25l6.4,25H580.6z"/>
	<path class="st0" d="M770.7,71.3c-2.5-3.5-7-7.9-13.7-13.1c-0.6-0.5-1.5-1.1-2.5-1.9c-6.2-4.7-9.3-8.2-9.3-10.2
		c0-1.8,0.8-3.2,2.5-4.1c1.6-0.9,4.2-1.3,7.5-1.3c1.8,0,4.1,0.2,6.7,0.7c2.7,0.4,6.1,1.2,10.3,2.4L770.8,26
		c-4.3-0.9-8.2-1.5-11.5-1.9c-3.3-0.4-6.4-0.6-9.1-0.6c-9.9,0-17.7,1.9-23.2,5.7c-5.6,3.8-8.3,9-8.3,15.7c0,7.1,6.3,15.6,19,25.6
		c0.1,0,0.1,0.1,0.2,0.1c0.5,0.4,1.2,0.9,2.1,1.7c5.7,4.4,8.5,7.6,8.5,9.8c0,1.5-0.7,2.7-2.2,3.7c-1.5,0.9-3.4,1.4-5.8,1.4
		c-3.4,0-7.1-0.4-10.9-1.1c-3.8-0.7-8-1.9-12.7-3.5l1.8,19.6c4.4,0.9,8.5,1.5,12.3,1.9c3.8,0.4,7.3,0.7,10.5,0.7
		c10.9,0,19.1-1.9,24.6-5.6c5.5-3.7,8.3-9.2,8.3-16.5C774.3,78.7,773.1,74.9,770.7,71.3"/>
	<path class="st0" d="M260.6,23.1c-42.5,0-48.9,29.4-48.9,43.8c0,10.8,3.8,38.2,50.3,38.2c9.9,0,19.7-1.1,29.3-3l3.2-16.5
		c-9.8,2.7-19.7,5-30,5c-16.3,0-27.7-8.2-27.7-22.8v-2.5h64.8c0.5-2.5,1.1-5.8,1.1-9.1C302.8,33.8,285,23.1,260.6,23.1 M277.5,55.1
		C253.5,55.1,237,63,237,63l0.7-8.3c1.6-10.2,9.8-18.6,22.4-18.6c13.8,0,18.7,6.5,18.7,18.6C278.7,54.7,278.4,55.1,277.5,55.1"/>
	<path class="st0" d="M184.7,62.3c5.9-0.9,10.5-3.1,13.7-6.5c3.2-3.4,4.9-7.8,4.9-13.1c0-6.1-2-10.6-6-13.5
		c-4-2.8-10.3-4.2-19.1-4.2h-39.3c-0.2,15.5-0.6,29.9-1.3,43.1c-0.7,13.2-1.6,24.9-2.9,35.1H176c9.2,0,16.3-1.9,21.2-5.7
		c4.9-3.8,7.3-9.3,7.3-16.5c0-5.7-1.6-10.1-4.9-13.2C196.4,64.7,191.4,62.9,184.7,62.3 M162,47.3c0.1-1.3,0.2-2.8,0.3-4.4
		c0.1-1.7,0.1-2.7,0.2-3.1h6.8c3.8,0,6.6,0.6,8,1.7c1.5,1.1,2.3,3.1,2.3,6c0,2.9-1,5.1-3,6.4c-2,1.3-5.2,2-9.8,2h-5.3L162,47.3z
		 M178.7,86c-2,1.6-5.1,2.3-9.3,2.3h-9.1v-4c0-2.3,0-4,0-5.1c0-1.1,0-2,0.1-2.8l0.3-6.5h10.7c3.4,0,6,0.7,7.7,2.2
		c1.7,1.5,2.6,3.7,2.6,6.7C181.7,82,180.7,84.4,178.7,86"/>
	<path class="st0" d="M371.4,24.1c-2.5-0.5-6.4-1-9.1-1c-11.3,0-19.6,7.6-24.2,17.1h-0.4l0.6-15.2h-24.1c0,34.9-1.8,56-3.4,78.2
		h25.1v-9.8c0-9.1,0.2-25.8,2.2-34.3c2.5-11,9.9-18.4,23-18.4c3.4,0,6.5,0.6,9.8,1.6L371.4,24.1z"/>
	<path class="st0" d="M99.4,68.5c-0.7,13.3-1.6,24.8-2.7,34.7h25.2c0.1-5.1,0.2-9.7,0.3-14c0.1-4.2,0.2-8,0.4-11.4l2-36.7
		c0.3-4.3,0.5-7.6,0.7-9.9c0.2-2.3,0.4-4.4,0.6-6.3h-25.2C100.5,40.7,100,55.2,99.4,68.5"/>
	<path class="st0" d="M453.1,101.4c-5.2,1.3-10.3,2.3-15.4,2.9c-5.1,0.6-10.1,1-15.2,1c-15.2,0-26.8-3.3-35-10
		c-8.1-6.6-12.2-16.1-12.2-28.5c0-13.9,4.5-24.7,13.5-32.4c9-7.7,21.7-11.6,37.9-11.6c3.4,0,7.1,0.2,11.2,0.6
		c4.1,0.4,8.6,1,13.5,1.8l1.3,18.4c-5.1-1.2-9.5-2-13.1-2.5c-3.6-0.5-6.9-0.8-9.7-0.8c-9.4,0-16.7,2.3-21.9,7.1
		c-5.2,4.8-7.8,11.3-7.8,19.7c0,6.3,1.9,11.2,5.6,14.6c3.8,3.5,9,5.2,15.7,5.2c1.4,0,2.9-0.1,4.3-0.3c1.4-0.2,2.8-0.5,4.2-0.8
		c0.2-1.8,0.3-3.5,0.4-5c0.1-1.6,0.2-3.1,0.2-4.5v-2H421l0.9-17.1H455c-0.6,7.1-1.1,13.7-1.5,19.9c-0.3,6.2-0.5,11.5-0.5,16.1
		c0,1.8,0,3.3,0,4.5C453.1,99,453.1,100.2,453.1,101.4"/>
	<path class="st0" d="M529.6,260.3c-3.5-1.1-5.1-1.8-5.1-3.8c0-1.8,2.4-2.5,4.5-2.5c1.8,0,3.7,0.5,5.1,1.4c0.3,0.2,0.7,0.3,1.1,0.2
		c0.4-0.1,0.7-0.3,0.8-0.7l0.6-1.2c0.3-0.6,0.1-1.3-0.5-1.7c-1.9-1.2-4.6-2-7-2c-5.1,0-8.6,2.6-8.6,6.5c0,5.1,4.3,6.4,7.8,7.4
		c3.6,1.1,5.2,1.8,5.2,3.9c0,2.2-2.5,2.9-4.9,2.9c-2.3,0-4.8-1.2-6.3-2.6c-0.3-0.3-0.7-0.4-1.1-0.4c-0.4,0-0.8,0.3-1,0.6l-0.7,1.2
		c-0.3,0.5-0.2,1.2,0.2,1.6c2.2,2.2,5.6,3.6,8.8,3.6c5.4,0,9-2.8,9-6.9C537.5,262.7,533.2,261.4,529.6,260.3"/>
	<path class="st0" d="M553.3,250.9c-0.2-0.5-0.7-0.8-1.2-0.8h-1.4c-0.5,0-1,0.3-1.2,0.8l-10,22.1c-0.2,0.4-0.1,0.9,0.1,1.2
		c0.2,0.4,0.7,0.6,1.1,0.6h1.5c0.5,0,1-0.3,1.2-0.8l2.5-5.5h11.2l2.5,5.5c0.2,0.5,0.7,0.8,1.2,0.8h1.5c0.4,0,0.9-0.2,1.1-0.6
		c0.2-0.4,0.3-0.8,0.1-1.2L553.3,250.9z M547.6,264.6l3.8-8.5l3.9,8.5H547.6z"/>
	<path class="st0" d="M570,250.1h-1.3c-0.7,0-1.3,0.6-1.3,1.3v22.1c0,0.7,0.6,1.3,1.3,1.3h1.3c0.7,0,1.3-0.6,1.3-1.3v-22.1
		C571.3,250.7,570.7,250.1,570,250.1"/>
	<path class="st0" d="M597.5,250.1h-1.3c-0.7,0-1.3,0.6-1.3,1.3v16.1l-12.4-16.9c-0.2-0.3-0.6-0.5-1.1-0.5h-1.5
		c-0.7,0-1.3,0.6-1.3,1.3v22.1c0,0.7,0.6,1.3,1.3,1.3h1.3c0.7,0,1.3-0.6,1.3-1.3v-16.1l12.4,16.9c0.2,0.3,0.6,0.5,1.1,0.5h1.5
		c0.7,0,1.3-0.6,1.3-1.3v-22.1C598.8,250.7,598.2,250.1,597.5,250.1"/>
	<path class="st0" d="M620.3,250.1h-16.2c-0.7,0-1.3,0.6-1.3,1.3v1.3c0,0.7,0.6,1.3,1.3,1.3h6.2v19.5c0,0.7,0.6,1.3,1.3,1.3h1.3
		c0.7,0,1.3-0.6,1.3-1.3v-19.5h6.2c0.7,0,1.3-0.6,1.3-1.3v-1.3C621.6,250.7,621,250.1,620.3,250.1"/>
	<path class="st0" d="M630,262.2h-7c-0.7,0-1.3,0.6-1.3,1.3v1.1c0,0.7,0.6,1.3,1.3,1.3h7c0.7,0,1.3-0.6,1.3-1.3v-1.1
		C631.3,262.8,630.7,262.2,630,262.2"/>
	<path class="st0" d="M657.5,261.4h-1.2c0,0,0,0,0,0h-3.9c-0.7,0-1.3,0.6-1.3,1.3v1.3c0,0.7,0.6,1.3,1.3,1.3h2.6v4
		c-1.5,1.1-3.4,1.6-5.3,1.6c-4.9,0-8.8-3.8-8.8-8.5c0-4.7,4-8.5,8.8-8.5c2.3,0,4.5,0.8,6.1,2.3c0.3,0.2,0.6,0.4,1,0.3
		c0.4,0,0.7-0.2,0.9-0.5l0.8-1c0.4-0.5,0.4-1.3-0.2-1.8c-2.4-2.1-5.4-3.2-8.6-3.2c-7,0-12.8,5.5-12.8,12.4c0,6.8,5.7,12.4,12.7,12.4
		c3.2,0,6.3-1.2,8.7-3.2c0.3-0.2,0.5-0.6,0.5-1v-8C658.8,262,658.2,261.4,657.5,261.4"/>
	<path class="st0" d="M676,250.1c-7,0-12.7,5.5-12.7,12.4c0,6.8,5.7,12.4,12.7,12.4c7,0,12.7-5.6,12.7-12.4
		C688.7,255.7,683,250.1,676,250.1 M676,271c-4.8,0-8.8-3.8-8.8-8.5c0-4.7,3.9-8.5,8.8-8.5c4.8,0,8.8,3.8,8.8,8.5
		C684.7,267.2,680.8,271,676,271"/>
	<path class="st0" d="M709.6,261.8c1.3-1.1,2.1-2.8,2.1-4.9c0-4.2-3.1-6.8-8.2-6.8h-9c-0.7,0-1.3,0.6-1.3,1.3v22.1
		c0,0.7,0.6,1.3,1.3,1.3h9.1c5.8,0,9.2-2.7,9.2-7.2C712.8,265,711.6,263,709.6,261.8 M703.5,260.2h-6.4v-6.1h6.4c2,0,4.3,0.5,4.3,3
		C707.8,259.1,706.3,260.2,703.5,260.2 M697.1,264.1h6.4c2,0,5.4,0.4,5.4,3.4c0,2.9-2.9,3.5-5.4,3.5h-6.4V264.1z"/>
	<path class="st0" d="M728.8,250.9c-0.2-0.5-0.7-0.8-1.2-0.8h-1.4c-0.5,0-1,0.3-1.2,0.8L715,273c-0.2,0.4-0.1,0.9,0.1,1.2
		c0.2,0.4,0.7,0.6,1.1,0.6h1.5c0.5,0,1-0.3,1.2-0.8l2.5-5.5h11.2l2.5,5.5c0.2,0.5,0.7,0.8,1.2,0.8h1.5c0.4,0,0.9-0.2,1.1-0.6
		c0.2-0.4,0.3-0.8,0.1-1.2L728.8,250.9z M723.1,264.6l3.8-8.5l3.9,8.5H723.1z"/>
	<path class="st0" d="M745.5,250.1h-1.3c-0.7,0-1.3,0.6-1.3,1.3v22.1c0,0.7,0.6,1.3,1.3,1.3h1.3c0.7,0,1.3-0.6,1.3-1.3v-22.1
		C746.8,250.7,746.2,250.1,745.5,250.1"/>
	<path class="st0" d="M773,250.1h-1.3c-0.7,0-1.3,0.6-1.3,1.3v16.1L758,250.7c-0.2-0.3-0.6-0.5-1.1-0.5h-1.5c-0.7,0-1.3,0.6-1.3,1.3
		v22.1c0,0.7,0.6,1.3,1.3,1.3h1.3c0.7,0,1.3-0.6,1.3-1.3v-16.1l12.4,16.9c0.2,0.3,0.6,0.5,1.1,0.5h1.5c0.7,0,1.3-0.6,1.3-1.3v-22.1
		C774.3,250.7,773.8,250.1,773,250.1"/>
	<path class="st0" d="M325.5,137.2c2.7,5.7,4.3,12.1,4.3,18.9c0,24.2-19.6,43.8-43.8,43.8c-3.8,0-7.4-0.5-10.9-1.4
		c7.1,14.7,22.1,24.9,39.5,24.9c24.2,0,43.8-19.6,43.8-43.8C358.3,159.2,344.4,142.1,325.5,137.2"/>
	<path class="st0" d="M631.5,142.3h-11.6c-1.8,0-3.4,1.1-4.1,2.8l-21.6,56.4l-21.7-56.4c-0.6-1.7-2.3-2.8-4.1-2.8h-11.6
		c-2.3,0-3.9,2.3-3,4.5l29.2,71.1c0.7,1.6,2.3,2.7,4,2.7h14.3c1.8,0,3.4-1.1,4-2.7l29.1-71.1C635.4,144.6,633.8,142.3,631.5,142.3"
		/>
	<path class="st0" d="M393.9,146.6v69.5c0,2.4-1.9,4.3-4.3,4.3h-9.1c-2.4,0-4.3-1.9-4.3-4.3v-69.5c0-2.4,1.9-4.3,4.3-4.3h9.1
		C392,142.3,393.9,144.2,393.9,146.6"/>
	<path class="st0" d="M770.1,140.6c-15.1,0-31.6,5-43.3,12.7c-1.2,0.8-1.9,2.2-1.9,3.6v59.2c0,2.4,1.9,4.3,4.3,4.3h9.4
		c2.4,0,4.3-1.9,4.3-4.3v-51.3c8.5-4.9,18.7-6.8,27.1-7c2.3-0.1,4.2-2,4.2-4.3l0-8.6C774.3,142.6,772.5,140.6,770.1,140.6"/>
	<path class="st0" d="M513.3,140.5c-22.5,0-41.6,17.3-41.6,40.9c0,22.9,18,40.9,41.6,40.9c23.5,0,41.6-18,41.6-40.9
		C554.9,157.8,535.8,140.5,513.3,140.5 M513.3,205.4c-13.2,0-24-10.9-24-24c0-14,11.6-24,24-24c12.4,0,24,10,24,24
		C537.3,194.6,526.5,205.4,513.3,205.4"/>
	<path class="st0" d="M408.8,201.8c1.3-2,4-2.6,5.9-1.3c6.1,4.2,13.7,5.3,19.9,5.3c5.7,0,14.2-2.2,14.2-8.4c0-5-6.8-6.3-17.8-9
		c-12.8-3.1-27-6.9-27-23.8c0-14.8,13.7-24,30.3-24c12.4,0,21.6,4.5,24.7,6.1c2.2,1.2,2.9,4.1,1.5,6.2l-4.4,6.6
		c-1.2,1.8-3.4,2.4-5.4,1.5c-2.1-1-9.2-4.2-16.3-4.2c-7.2,0-12.9,2.7-12.9,7.7c0,4.6,6.4,6.5,20.9,10c12,2.9,23.9,8.2,23.9,22.8
		c0,15.4-12.9,25-31.7,25c-8.9,0-21.3-3.1-28.5-8.4c-2-1.4-2.6-4-1.3-6.1L408.8,201.8z"/>
	<path class="st0" d="M674.8,140.5c-24,0-41.2,17.9-41.2,40.9c0,25.6,20.4,40.9,44.9,40.9c15.8,0,24.7-5.1,31-9.3
		c2.4-1.6,2.7-4.9,0.6-6.8l-5.3-4.9c-1.4-1.3-3.5-1.6-5.2-0.6c-0.7,0.4-9.4,6-20.6,6c-15.2,0-24-9.2-26.2-17.3h58.5
		c2.2,0,4.1-1.6,4.3-3.8c0.1-1.4,0.2-2.8,0.2-4.2C715.9,157.9,697.6,140.5,674.8,140.5 M674.8,155.9c12.4,0,20.1,8.7,22.3,18.3
		h-44.5C654.9,163.9,662.4,155.9,674.8,155.9"/>
	<path class="st1" d="M329.8,156.1c0,24.2-19.6,43.8-43.8,43.8c-24.2,0-43.8-19.6-43.8-43.8s19.6-43.8,43.8-43.8
		C310.2,112.4,329.8,132,329.8,156.1"/>
</g>
</svg>
